<?xml version="1.0" encoding="utf-8"?>
<!-- Generator: Adobe Illustrator 24.0.0, SVG Export Plug-In . SVG Version: 6.00 Build 0)  -->
<svg version="1.1"
	 id="svg72699" xmlns:cc="http://creativecommons.org/ns#" xmlns:dc="http://purl.org/dc/elements/1.1/" xmlns:rdf="http://www.w3.org/1999/02/22-rdf-syntax-ns#" xmlns:svg="http://www.w3.org/2000/svg"
	 xmlns="http://www.w3.org/2000/svg" xmlns:xlink="http://www.w3.org/1999/xlink" x="0px" y="0px" viewBox="0 0 616 426.4"
	 style="enable-background:new 0 0 616 426.4;" xml:space="preserve">
<style type="text/css">
	.st0{fill:#4285F4;}
	.st1{fill:#34A853;}
	.st2{fill:#EA4335;}
	.st3{fill:#FBBC05;}
</style>
<path class="st0" d="M148.4,276.1L148.4,276.1c-35.2,0-63.7-28.5-63.7-63.7V63.7C84.7,28.5,113.2,0,148.4,0l0,0
	c35.2,0,63.7,28.5,63.7,63.7v148.7C212.1,247.6,183.6,276.1,148.4,276.1z"/>
<rect x="127.2" y="348.5" class="st1" width="42.5" height="77.9"/>
<path class="st2" d="M254.8,213.2c-0.1,58.6-47.8,106.3-106.4,106.3c-29.4,0-56.1-12-75.4-31.4l-29.7,29.7
	c26.9,26.9,64,43.6,105.1,43.6l0,0c81.9,0,148.3-66.4,148.4-148.3L254.8,213.2L254.8,213.2z"/>
<path class="st3" d="M73,288.1c-19.1-19.2-31-45.7-31-74.9H0C0,254,16.6,291,43.3,317.8L73,288.1z"/>
</svg>
